# xmcd CD database file
#
# Track frame offsets:
#	150
#	22456
#	35570
#	51943
#	76178
#	99408
#	125304
#	149958
#	170004
#	188729
#	213641
#	236002
#	257095
#	266366
#	281559
#	290587
#	308772
#	323943
#	337579
#
# Disc length: 4791 seconds
#
# Revision: 0
# Processed by: cddbd v1.5.1PL0 Copyright (c) Steve Scherf et al.
# Submitted via: CDex 1.51
#
DISCID=2312b513
DTITLE=Mark Knopfler - Legendary Masters
DYEAR=1900
DGENRE=Blues
TTITLE0=What It Is - Sailing To Philadelphia
TTITLE1=Camerado - What It Is (Single)
TTITLE2=Cannibals - Golden Heart
TTITLE3=Poor Boy Blues (with C. Atkins) - Neck And Neck
TTITLE4=Baloney Again - Sailing To Philadelphia
TTITLE5=Sultans Of Swing - Metroland
TTITLE6=Sailing To Philadelphia - Sailing To Philadelphia
TTITLE7=Darling Pretty - Golden Heart
TTITLE8=Just One Time (with C. Atkins) - Neck And Neck
TTITLE9=Silvertown Blues - Sailing To Philadelphia
TTITLE10=Golden Heart - Golden Heart
TTITLE11=Wag The Dog - Wag The Dog
TTITLE12=The Road - Cal
TTITLE13=The Last Laugh - Sailing To Philadelphia
TTITLE14=An American Hero - Wag The Dog
TTITLE15=The Way It Always Starts - Local Hero
TTITLE16=Alison - Metroland
TTITLE17=I Will Never Love Again - Princes Bride
TTITLE18=Je Suis Desole - Golden Heart
EXTD=
EXTT0=
EXTT1=
EXTT2=
EXTT3=
EXTT4=
EXTT5=
EXTT6=
EXTT7=
EXTT8=
EXTT9=
EXTT10=
EXTT11=
EXTT12=
EXTT13=
EXTT14=
EXTT15=
EXTT16=
EXTT17=
EXTT18=
PLAYORDER=
